<?xml version="1.0" encoding="utf-8"?>
<svg viewBox="0 0 128 128" width="128px" height="128px" xmlns="http://www.w3.org/2000/svg" xmlns:bx="https://boxy-svg.com">
  <defs>
    <bx:grid x="0" y="0" width="4" height="4"/>
  </defs>
  <path style="fill: none;" d="M 128 0 C 48 0 0 48 0.001 128"/>
  <path d="M -0.499 128 C -0.484 87.912 11.574 55.72 33.647 33.646 C 44.686 22.607 58.279 14.048 74.079 8.28 C 81.976 5.397 90.459 3.198 99.45 1.725 C 103.945 0.989 108.583 0.432 113.34 0.06 C 115.718 -0.126 118.133 -0.266 120.575 -0.359 C 121.796 -0.406 123.027 -0.441 124.264 -0.465 C 124.882 -0.477 125.504 -0.485 126.126 -0.491 C 126.437 -0.494 126.75 -0.496 127.062 -0.498 C 127.374 -0.499 127.998 -0.5 127.998 -0.5 C 127.998 -0.5 128.002 0.5 128.002 0.5 C 128.002 0.5 127.377 0.501 127.066 0.502 C 126.755 0.504 126.446 0.506 126.136 0.509 C 125.516 0.515 124.899 0.523 124.283 0.535 C 123.051 0.558 121.829 0.593 120.613 0.64 C 118.181 0.733 115.786 0.872 113.418 1.057 C 108.682 1.427 104.086 1.98 99.612 2.712 C 90.666 4.177 82.274 6.353 74.421 9.22 C 58.721 14.952 45.314 23.393 34.354 34.354 C 12.427 56.28 0.485 88.088 0.501 128 Z" style="fill: none;"/>
  <path d="M -0.499 128 C -0.484 87.912 11.574 55.72 33.647 33.646 C 44.686 22.607 58.279 14.048 74.079 8.28 C 81.976 5.397 90.459 3.198 99.45 1.725 C 103.945 0.989 108.583 0.432 113.34 0.06 C 115.718 -0.126 118.133 -0.266 120.575 -0.359 C 121.796 -0.406 123.027 -0.441 124.264 -0.465 C 124.882 -0.477 125.504 -0.485 126.126 -0.491 C 126.437 -0.494 126.75 -0.496 127.062 -0.498 C 127.374 -0.499 127.998 -0.5 127.998 -0.5 C 127.998 -0.5 128.002 0.5 128.002 0.5 C 128.002 0.5 127.377 0.501 127.066 0.502 C 126.755 0.504 126.446 0.506 126.136 0.509 C 125.516 0.515 124.899 0.523 124.283 0.535 C 123.051 0.558 121.829 0.593 120.613 0.64 C 118.181 0.733 115.786 0.872 113.418 1.057 C 108.682 1.427 104.086 1.98 99.612 2.712 C 90.666 4.177 82.274 6.353 74.421 9.22 C 58.721 14.952 45.314 23.393 34.354 34.354 C 12.427 56.28 0.485 88.088 0.501 128 Z" style="fill: none;"/>
  <path style="fill: rgb(69, 156, 249); stroke: rgb(69, 156, 249); stroke-width: 2px; stroke-linejoin: round; stroke-linecap: round;" d="M 1 126.995 L 1 127 C 1 126.998 1 126.997 1 126.995 Z M 1 1.161 L 127 1 C 48.251 1.161 1.001 48.348 1 126.995 Z M 127 1.005 L 127 1 C 127 1.002 127 1.003 127 1.005 Z M 127 126.839 L 1 127 C 79.749 126.839 126.999 79.651 127 1.005 Z"/>
  <circle style="fill: rgb(69, 156, 249);" cx="64" cy="64" r="42"/>
  <path d="M 61.725 39.23 C 79.058 39.23 87.725 47.487 87.725 64 C 87.725 80.513 79.058 88.77 61.725 88.77 L 40.275 88.77 L 40.275 39.23 L 61.725 39.23 Z M 56.185 51.11 L 56.185 76.89 L 61.445 76.89 C 68.112 76.89 71.445 73.313 71.445 66.16 L 71.445 61.84 C 71.445 54.687 68.112 51.11 61.445 51.11 L 56.185 51.11 Z" style="fill: rgb(255, 255, 255); white-space: pre;" transform="matrix(0.707107, -0.707106, 0.707106, 0.707107, -26.509667, 63.999946)"/>
</svg>